<mxfile host="app.diagrams.net" agent="Mozilla/5.0 (Windows NT 10.0; Win64; x64) AppleWebKit/537.36 (KHTML, like Gecko) Chrome/136.0.0.0 Safari/537.36" version="27.0.3">
  <diagram name="Página-1" id="AyEtOqxbIy0BaYnB9xdV">
    <mxGraphModel dx="1106" dy="597" grid="1" gridSize="10" guides="1" tooltips="1" connect="1" arrows="1" fold="1" page="1" pageScale="1" pageWidth="827" pageHeight="1169" math="0" shadow="0">
      <root>
        <mxCell id="0" />
        <mxCell id="1" parent="0" />
        <mxCell id="rtZpO-w_TSPbuRR4PdPr-4" value="Personaje" style="swimlane;childLayout=stackLayout;horizontal=1;startSize=50;horizontalStack=0;rounded=1;fontSize=14;fontStyle=0;strokeWidth=2;resizeParent=0;resizeLast=1;shadow=0;dashed=0;align=center;arcSize=4;whiteSpace=wrap;html=1;" vertex="1" parent="1">
          <mxGeometry x="200" y="60" width="280" height="310" as="geometry" />
        </mxCell>
        <mxCell id="rtZpO-w_TSPbuRR4PdPr-26" value="" style="endArrow=none;html=1;rounded=0;" edge="1" parent="rtZpO-w_TSPbuRR4PdPr-4" target="rtZpO-w_TSPbuRR4PdPr-5">
          <mxGeometry relative="1" as="geometry">
            <mxPoint y="140" as="sourcePoint" />
            <mxPoint x="160" y="140" as="targetPoint" />
          </mxGeometry>
        </mxCell>
        <mxCell id="rtZpO-w_TSPbuRR4PdPr-28" value="" style="endArrow=none;html=1;rounded=0;entryX=1.007;entryY=0.342;entryDx=0;entryDy=0;entryPerimeter=0;" edge="1" parent="rtZpO-w_TSPbuRR4PdPr-4" target="rtZpO-w_TSPbuRR4PdPr-5">
          <mxGeometry relative="1" as="geometry">
            <mxPoint y="140" as="sourcePoint" />
            <mxPoint x="340" y="140" as="targetPoint" />
          </mxGeometry>
        </mxCell>
        <mxCell id="rtZpO-w_TSPbuRR4PdPr-5" value="&lt;div&gt;&lt;div&gt;- nombre:&amp;nbsp; String&lt;span style=&quot;background-color: transparent; color: light-dark(rgb(0, 0, 0), rgb(255, 255, 255));&quot;&gt;&amp;nbsp; &amp;nbsp; &amp;nbsp; &amp;nbsp; &amp;nbsp; &amp;nbsp; &amp;nbsp; &amp;nbsp;&lt;/span&gt;&lt;/div&gt;&lt;div&gt;- puntosDeVida: int&amp;nbsp; &amp;nbsp; &amp;nbsp;&amp;nbsp;&lt;span style=&quot;background-color: transparent; color: light-dark(rgb(0, 0, 0), rgb(255, 255, 255));&quot;&gt;&amp;nbsp; &amp;nbsp; &amp;nbsp; &amp;nbsp; &amp;nbsp; &amp;nbsp; &amp;nbsp; &amp;nbsp;&lt;/span&gt;&lt;/div&gt;&lt;div&gt;- MAX_DAÑO: int = 30&amp;nbsp;&amp;nbsp;&lt;span style=&quot;background-color: transparent; color: light-dark(rgb(0, 0, 0), rgb(255, 255, 255));&quot;&gt;&amp;nbsp; &amp;nbsp; &amp;nbsp; &amp;nbsp; &amp;nbsp; &amp;nbsp; &amp;nbsp; &amp;nbsp; &amp;nbsp;&amp;nbsp;&lt;/span&gt;&lt;/div&gt;&lt;div&gt;- MIN_DAÑO: int = 10&amp;nbsp; &amp;nbsp;&lt;b style=&quot;&quot;&gt; &lt;i&gt;&amp;nbsp;&lt;/i&gt;&lt;/b&gt;&lt;/div&gt;&lt;/div&gt;&lt;div&gt;&lt;b style=&quot;&quot;&gt;&lt;i&gt;&lt;br&gt;&lt;/i&gt;&lt;/b&gt;&lt;/div&gt;&lt;div&gt;&lt;b style=&quot;&quot;&gt;&lt;i&gt;&lt;br&gt;&lt;/i&gt;&lt;/b&gt;&lt;/div&gt;&lt;div&gt;+ Personaje(nombre: String)&amp;nbsp; &amp;nbsp; &amp;nbsp; &amp;nbsp; &amp;nbsp; &amp;nbsp; &amp;nbsp; &amp;nbsp; &amp;nbsp; &amp;nbsp; &amp;nbsp; &amp;nbsp; &amp;nbsp; &amp;nbsp;&lt;/div&gt;&lt;div&gt;+ atacar(oponente: Personaje): void&amp;nbsp; &amp;nbsp; &amp;nbsp; &amp;nbsp; &amp;nbsp; &amp;nbsp; &amp;nbsp; &amp;nbsp; &amp;nbsp; &amp;nbsp;&lt;/div&gt;&lt;div&gt;+ recibirDaño(daño: int): void&amp;nbsp; &amp;nbsp; &amp;nbsp; &amp;nbsp; &amp;nbsp; &amp;nbsp; &amp;nbsp; &amp;nbsp; &amp;nbsp; &amp;nbsp; &amp;nbsp; &amp;nbsp;&amp;nbsp;&lt;/div&gt;&lt;div&gt;+ estaVivo(): boolean&amp;nbsp; &amp;nbsp; &amp;nbsp; &amp;nbsp; &amp;nbsp; &amp;nbsp; &amp;nbsp; &amp;nbsp; &amp;nbsp; &amp;nbsp; &amp;nbsp; &amp;nbsp; &amp;nbsp; &amp;nbsp; &amp;nbsp; &amp;nbsp; &amp;nbsp;&lt;/div&gt;&lt;div&gt;+ getNombre(): String&amp;nbsp; &amp;nbsp; &amp;nbsp; &amp;nbsp; &amp;nbsp; &amp;nbsp; &amp;nbsp; &amp;nbsp; &amp;nbsp; &amp;nbsp; &amp;nbsp; &amp;nbsp; &amp;nbsp; &amp;nbsp; &amp;nbsp; &amp;nbsp; &amp;nbsp;&lt;/div&gt;&lt;div&gt;&lt;span style=&quot;background-color: transparent;&quot;&gt;+ getPuntosDeVida(): int&amp;nbsp; &amp;nbsp;&lt;/span&gt;&lt;span style=&quot;background-color: transparent; color: light-dark(rgb(0, 0, 0), rgb(255, 255, 255));&quot;&gt;&amp;nbsp;&lt;/span&gt;&lt;/div&gt;" style="align=left;strokeColor=none;fillColor=none;spacingLeft=4;spacingRight=4;fontSize=12;verticalAlign=top;resizable=0;rotatable=0;part=1;html=1;whiteSpace=wrap;" vertex="1" parent="rtZpO-w_TSPbuRR4PdPr-4">
          <mxGeometry y="50" width="280" height="260" as="geometry" />
        </mxCell>
        <mxCell id="rtZpO-w_TSPbuRR4PdPr-13" value="" style="endArrow=none;html=1;rounded=0;" edge="1" parent="rtZpO-w_TSPbuRR4PdPr-4" target="rtZpO-w_TSPbuRR4PdPr-5">
          <mxGeometry relative="1" as="geometry">
            <mxPoint y="120" as="sourcePoint" />
            <mxPoint x="160" y="120" as="targetPoint" />
          </mxGeometry>
        </mxCell>
        <mxCell id="rtZpO-w_TSPbuRR4PdPr-6" value="Mago" style="swimlane;childLayout=stackLayout;horizontal=1;startSize=50;horizontalStack=0;rounded=1;fontSize=14;fontStyle=0;strokeWidth=2;resizeParent=0;resizeLast=1;shadow=0;dashed=0;align=center;arcSize=4;whiteSpace=wrap;html=1;" vertex="1" parent="1">
          <mxGeometry x="20" y="400" width="140" height="120" as="geometry" />
        </mxCell>
        <mxCell id="rtZpO-w_TSPbuRR4PdPr-32" value="" style="endArrow=none;html=1;rounded=0;" edge="1" parent="rtZpO-w_TSPbuRR4PdPr-6" target="rtZpO-w_TSPbuRR4PdPr-7">
          <mxGeometry relative="1" as="geometry">
            <mxPoint y="70" as="sourcePoint" />
            <mxPoint x="160" y="70" as="targetPoint" />
          </mxGeometry>
        </mxCell>
        <mxCell id="rtZpO-w_TSPbuRR4PdPr-40" value="" style="endArrow=none;html=1;rounded=0;" edge="1" parent="rtZpO-w_TSPbuRR4PdPr-6" target="rtZpO-w_TSPbuRR4PdPr-7">
          <mxGeometry relative="1" as="geometry">
            <mxPoint y="70" as="sourcePoint" />
            <mxPoint x="150" y="70" as="targetPoint" />
          </mxGeometry>
        </mxCell>
        <mxCell id="rtZpO-w_TSPbuRR4PdPr-42" value="" style="endArrow=none;html=1;rounded=0;" edge="1" parent="rtZpO-w_TSPbuRR4PdPr-6" target="rtZpO-w_TSPbuRR4PdPr-7">
          <mxGeometry relative="1" as="geometry">
            <mxPoint y="70" as="sourcePoint" />
            <mxPoint x="120" y="70" as="targetPoint" />
          </mxGeometry>
        </mxCell>
        <mxCell id="rtZpO-w_TSPbuRR4PdPr-43" value="" style="endArrow=none;html=1;rounded=0;" edge="1" parent="rtZpO-w_TSPbuRR4PdPr-6">
          <mxGeometry relative="1" as="geometry">
            <mxPoint y="70" as="sourcePoint" />
            <mxPoint x="140" y="70" as="targetPoint" />
          </mxGeometry>
        </mxCell>
        <mxCell id="rtZpO-w_TSPbuRR4PdPr-7" value="&amp;nbsp;&lt;div&gt;&lt;div&gt;&lt;br&gt;&lt;/div&gt;&lt;div&gt;+ Mago(nombre: String)&lt;/div&gt;&lt;/div&gt;" style="align=left;strokeColor=none;fillColor=none;spacingLeft=4;spacingRight=4;fontSize=12;verticalAlign=top;resizable=0;rotatable=0;part=1;html=1;whiteSpace=wrap;" vertex="1" parent="rtZpO-w_TSPbuRR4PdPr-6">
          <mxGeometry y="50" width="140" height="70" as="geometry" />
        </mxCell>
        <mxCell id="rtZpO-w_TSPbuRR4PdPr-33" value="Guerrero" style="swimlane;childLayout=stackLayout;horizontal=1;startSize=50;horizontalStack=0;rounded=1;fontSize=14;fontStyle=0;strokeWidth=2;resizeParent=0;resizeLast=1;shadow=0;dashed=0;align=center;arcSize=4;whiteSpace=wrap;html=1;" vertex="1" parent="1">
          <mxGeometry x="250" y="440" width="160" height="120" as="geometry" />
        </mxCell>
        <mxCell id="rtZpO-w_TSPbuRR4PdPr-34" value="" style="endArrow=none;html=1;rounded=0;" edge="1" parent="rtZpO-w_TSPbuRR4PdPr-33">
          <mxGeometry relative="1" as="geometry">
            <mxPoint y="70" as="sourcePoint" />
            <mxPoint x="160" y="70" as="targetPoint" />
          </mxGeometry>
        </mxCell>
        <mxCell id="rtZpO-w_TSPbuRR4PdPr-35" value="&amp;nbsp;&lt;div&gt;&lt;div&gt;+ Guerrero(nombre: String)&lt;/div&gt;&lt;/div&gt;" style="align=left;strokeColor=none;fillColor=none;spacingLeft=4;spacingRight=4;fontSize=12;verticalAlign=top;resizable=0;rotatable=0;part=1;html=1;whiteSpace=wrap;" vertex="1" parent="rtZpO-w_TSPbuRR4PdPr-33">
          <mxGeometry y="50" width="160" height="70" as="geometry" />
        </mxCell>
        <mxCell id="rtZpO-w_TSPbuRR4PdPr-44" value="JuegoLucha&amp;nbsp;" style="swimlane;childLayout=stackLayout;horizontal=1;startSize=50;horizontalStack=0;rounded=1;fontSize=14;fontStyle=0;strokeWidth=2;resizeParent=0;resizeLast=1;shadow=0;dashed=0;align=center;arcSize=4;whiteSpace=wrap;html=1;" vertex="1" parent="1">
          <mxGeometry x="460" y="400" width="320" height="310" as="geometry" />
        </mxCell>
        <mxCell id="rtZpO-w_TSPbuRR4PdPr-45" value="" style="endArrow=none;html=1;rounded=0;" edge="1" parent="rtZpO-w_TSPbuRR4PdPr-44" target="rtZpO-w_TSPbuRR4PdPr-47">
          <mxGeometry relative="1" as="geometry">
            <mxPoint y="140" as="sourcePoint" />
            <mxPoint x="160" y="140" as="targetPoint" />
          </mxGeometry>
        </mxCell>
        <mxCell id="rtZpO-w_TSPbuRR4PdPr-46" value="" style="endArrow=none;html=1;rounded=0;entryX=1.007;entryY=0.342;entryDx=0;entryDy=0;entryPerimeter=0;" edge="1" parent="rtZpO-w_TSPbuRR4PdPr-44" target="rtZpO-w_TSPbuRR4PdPr-47">
          <mxGeometry relative="1" as="geometry">
            <mxPoint y="140" as="sourcePoint" />
            <mxPoint x="340" y="140" as="targetPoint" />
          </mxGeometry>
        </mxCell>
        <mxCell id="rtZpO-w_TSPbuRR4PdPr-47" value="&lt;div&gt;&lt;div&gt;&lt;font face=&quot;Times New Roman&quot; style=&quot;font-size: 14px;&quot;&gt;&lt;font style=&quot;&quot;&gt;-&lt;/font&gt;&lt;font style=&quot;&quot;&gt; jugador1: Personaje&amp;nbsp; &amp;nbsp; &amp;nbsp; &amp;nbsp; &amp;nbsp; &amp;nbsp; &amp;nbsp; &amp;nbsp; &amp;nbsp; &amp;nbsp; &amp;nbsp; &amp;nbsp;&amp;nbsp;&lt;/font&gt;&lt;/font&gt;&lt;/div&gt;&lt;div&gt;&lt;font face=&quot;Times New Roman&quot; size=&quot;3&quot; style=&quot;&quot;&gt;&lt;font style=&quot;background-color: transparent; color: light-dark(rgb(0, 0, 0), rgb(255, 255, 255));&quot;&gt;- jugador2: Personaje&amp;nbsp; &lt;/font&gt;&lt;span style=&quot;background-color: transparent; color: light-dark(rgb(0, 0, 0), rgb(255, 255, 255));&quot;&gt;&amp;nbsp;&lt;/span&gt;&lt;/font&gt;&lt;/div&gt;&lt;/div&gt;&lt;div&gt;&lt;br&gt;&lt;/div&gt;&lt;div&gt;&lt;br&gt;&lt;/div&gt;&lt;div&gt;&lt;b style=&quot;&quot;&gt;&lt;i&gt;&lt;br&gt;&lt;/i&gt;&lt;/b&gt;&lt;/div&gt;&lt;div&gt;&lt;b style=&quot;&quot;&gt;&lt;i&gt;&lt;br&gt;&lt;/i&gt;&lt;/b&gt;&lt;/div&gt;&lt;div&gt;+ JuegoLucha(jugador1: Personaje, jugador2 Personaje)&amp;nbsp;&lt;/div&gt;&lt;div&gt;+ iniciarPelea(): void&amp;nbsp; &amp;nbsp; &amp;nbsp; &amp;nbsp; &amp;nbsp; &amp;nbsp; &amp;nbsp; &amp;nbsp; &amp;nbsp; &amp;nbsp; &amp;nbsp; &amp;nbsp;&amp;nbsp;&lt;/div&gt;&lt;div&gt;&lt;span style=&quot;background-color: transparent;&quot;&gt;- turno(atacante: Personaje, defensor:Personaje): void &lt;/span&gt;&lt;span style=&quot;background-color: transparent; color: light-dark(rgb(0, 0, 0), rgb(255, 255, 255));&quot;&gt;&amp;nbsp;&lt;/span&gt;&lt;span style=&quot;background-color: transparent; color: light-dark(rgb(0, 0, 0), rgb(255, 255, 255));&quot;&gt;&amp;nbsp;&lt;/span&gt;&lt;/div&gt;" style="align=left;strokeColor=none;fillColor=none;spacingLeft=4;spacingRight=4;fontSize=12;verticalAlign=top;resizable=0;rotatable=0;part=1;html=1;whiteSpace=wrap;" vertex="1" parent="rtZpO-w_TSPbuRR4PdPr-44">
          <mxGeometry y="50" width="320" height="260" as="geometry" />
        </mxCell>
        <mxCell id="rtZpO-w_TSPbuRR4PdPr-48" value="" style="endArrow=none;html=1;rounded=0;" edge="1" parent="rtZpO-w_TSPbuRR4PdPr-44" target="rtZpO-w_TSPbuRR4PdPr-47">
          <mxGeometry relative="1" as="geometry">
            <mxPoint y="120" as="sourcePoint" />
            <mxPoint x="160" y="120" as="targetPoint" />
          </mxGeometry>
        </mxCell>
        <mxCell id="rtZpO-w_TSPbuRR4PdPr-55" style="edgeStyle=orthogonalEdgeStyle;rounded=0;orthogonalLoop=1;jettySize=auto;html=1;entryX=0.782;entryY=0.988;entryDx=0;entryDy=0;entryPerimeter=0;" edge="1" parent="1" source="rtZpO-w_TSPbuRR4PdPr-44" target="rtZpO-w_TSPbuRR4PdPr-5">
          <mxGeometry relative="1" as="geometry" />
        </mxCell>
        <mxCell id="rtZpO-w_TSPbuRR4PdPr-56" style="edgeStyle=orthogonalEdgeStyle;rounded=0;orthogonalLoop=1;jettySize=auto;html=1;entryX=0.661;entryY=1.015;entryDx=0;entryDy=0;entryPerimeter=0;" edge="1" parent="1" source="rtZpO-w_TSPbuRR4PdPr-33" target="rtZpO-w_TSPbuRR4PdPr-5">
          <mxGeometry relative="1" as="geometry" />
        </mxCell>
        <mxCell id="rtZpO-w_TSPbuRR4PdPr-57" style="edgeStyle=orthogonalEdgeStyle;rounded=0;orthogonalLoop=1;jettySize=auto;html=1;entryX=0.071;entryY=1.015;entryDx=0;entryDy=0;entryPerimeter=0;" edge="1" parent="1" source="rtZpO-w_TSPbuRR4PdPr-6" target="rtZpO-w_TSPbuRR4PdPr-5">
          <mxGeometry relative="1" as="geometry" />
        </mxCell>
        <mxCell id="rtZpO-w_TSPbuRR4PdPr-62" value="Ejecutarjuego" style="swimlane;childLayout=stackLayout;horizontal=1;startSize=50;horizontalStack=0;rounded=1;fontSize=14;fontStyle=0;strokeWidth=2;resizeParent=0;resizeLast=1;shadow=0;dashed=0;align=center;arcSize=4;whiteSpace=wrap;html=1;" vertex="1" parent="1">
          <mxGeometry x="590" y="140" width="160" height="120" as="geometry" />
        </mxCell>
        <mxCell id="rtZpO-w_TSPbuRR4PdPr-63" value="+ main(args: String[]): void" style="align=left;strokeColor=none;fillColor=none;spacingLeft=4;spacingRight=4;fontSize=12;verticalAlign=top;resizable=0;rotatable=0;part=1;html=1;whiteSpace=wrap;" vertex="1" parent="rtZpO-w_TSPbuRR4PdPr-62">
          <mxGeometry y="50" width="160" height="70" as="geometry" />
        </mxCell>
      </root>
    </mxGraphModel>
  </diagram>
</mxfile>
